 <svg
      xmlns="http://www.w3.org/2000/svg"
      width="70.109"
      height="95.766"
      version="1.1"
      viewBox="0 0 18.55 25.338"
    >
      <g
        fillOpacity="1"
        strokeDasharray="none"
        strokeDashoffset="0"
        strokeMiterlimit="4"
        strokeOpacity="1"
        strokeWidth="0.684"
        transform="translate(-113.01 -125.449)"
      >
        <path
          fill="none"
          stroke="#fefefe"
          strokeLinecap="round"
          strokeLinejoin="round"
          d="M128.869 130.71c.322.777.313 1.992-.357 2.501-1.133.861-2.823-.777-4.228-.561-1.315.2-2.289 1.728-3.618 1.685-1.025-.034-1.684-1.34-2.7-1.481-1.363-.19-2.936 1.762-4.025.919-.923-.715-.601-2.445-.112-3.506 2.59-5.616 12.178-6.474 15.04.442z"
          opacity="1"
          paintOrder="markers stroke fill"
          vectorEffect="none"
        ></path>
        <path
          fill="none"
          stroke="#f9f9f9"
          strokeLinecap="round"
          strokeLinejoin="round"
          d="M116.947 133.16v0s-.117 3.767-.611 5.566c-.511 1.858-2.395 5.26-2.395 5.26-.956 1.728.465 1.876 1.12.715 0 0 2.505-4.2 3.109-6.537.41-1.584.305-4.902.305-4.902"
          opacity="1"
          paintOrder="markers stroke fill"
          vectorEffect="none"
        ></path>
        <path
          fill="none"
          stroke="#fff"
          strokeLinecap="round"
          strokeLinejoin="round"
          d="M118.475 133.262s.08 5.473-.305 8.17c-.266 1.86-1.376 5.464-1.376 5.464-.761 2.67 1.278 2.461 1.732.766 0 0 1.328-4.893 1.58-7.404.202-2.01-.06-6.061-.06-6.061"
          opacity="1"
          paintOrder="markers stroke fill"
          vectorEffect="none"
        ></path>
        <path
          fill="none"
          stroke="#fff"
          strokeLinecap="round"
          strokeLinejoin="round"
          d="M120.082 134.693s.086 6.313.431 9.446c.205 1.855.968 5.515.968 5.515.566 1.41 1.559.713 1.274-.307 0 0-.72-5.13-.917-7.71"
          opacity="1"
          paintOrder="markers stroke fill"
          vectorEffect="none"
        ></path>
        <path
          fill="none"
          stroke="#fff"
          strokeLinecap="round"
          strokeLinejoin="round"
          d="M121.62 134.194l.218 7.443c.7 2.717 1.39 5.447 2.751 7.302.684 1.113 1.876.312 1.376-.97 0 0-1.796-4.108-2.293-6.281-.61-2.668-.815-8.17-.815-8.17"
          opacity="1"
          paintOrder="markers stroke fill"
          vectorEffect="none"
        ></path>
        <path
          fill="none"
          stroke="#fff"
          strokeLinecap="round"
          strokeLinejoin="round"
          d="M124.793 132.956s.112 5.366.968 7.864c.591 1.725 1.65 3.132 2.802 4.698.646.933-.193 1.668-1.095.868-1.606-1.519-2.902-3.13-3.821-6.077l-.79-6.791"
          opacity="1"
          paintOrder="markers stroke fill"
          vectorEffect="none"
        ></path>
        <path
          fill="none"
          stroke="#fff"
          strokeLinecap="round"
          strokeLinejoin="round"
          d="M126.627 133.313v0s.214 3.98 1.07 5.72a8.067 8.067 0 002.879 3.216c1.323.565.495 1.992-1.401 1.073-1.513-.665-2.793-2.501-3.694-4.596-.684-1.866-.486-3.843-.688-5.77"
          opacity="1"
          paintOrder="markers stroke fill"
          vectorEffect="none"
        ></path>
        <path
          fill="#fff"
          fillRule="nonzero"
          stroke="none"
          strokeLinecap="square"
          strokeLinejoin="miter"
          d="M113.763 130.989c-.004.107 0 .213.025.318a.774.774 0 00.113.26c.049.053.115.075.174.115.068.052.149.08.231.1.095.021.193.024.29.025h.351a.68.68 0 00.317-.052c.112-.058.22-.122.33-.18.132-.06.263-.119.388-.191.109-.061.18-.164.268-.25.115-.09.226-.187.334-.286a.679.679 0 00.206-.238c.044-.09.104-.168.144-.26.05-.103.106-.205.161-.306.044-.088.081-.18.126-.267.038-.076.058-.16.093-.237.077-.163.308-.054.23.11-.04.078-.051.169-.097.245-.048.088-.08.184-.129.272-.052.096-.103.191-.152.289-.042.091-.097.175-.146.263a.919.919 0 01-.264.318 5.936 5.936 0 01-.33.283c-.105.098-.187.22-.318.286a4.39 4.39 0 01-.395.195c-.121.063-.237.135-.361.194a.93.93 0 01-.404.068h-.358a1.651 1.651 0 01-.347-.033.898.898 0 01-.314-.139c-.038-.029-.081-.043-.121-.068-.045-.029-.08-.073-.117-.11a1.071 1.071 0 01-.15-.348 1.401 1.401 0 01-.033-.376c0-.18.255-.18.255 0z"
          opacity="1"
          paintOrder="fill markers stroke"
        ></path>
        <path
          fill="#fff"
          fillRule="nonzero"
          stroke="none"
          strokeLinecap="square"
          strokeLinejoin="miter"
          d="M119.112 130.223c.003.099-.007.198.005.296.015.09.05.176.092.256.034.085.085.16.137.235.074.09.136.187.201.282.065.078.116.165.175.246a.61.61 0 00.183.175c.084.046.17.087.261.114.09.022.177.055.27.07.093.018.185.004.278-.01.112-.033.233-.057.34-.107.136-.058.277-.107.414-.165a.854.854 0 00.329-.19c.092-.083.175-.176.258-.269.061-.087.112-.182.167-.274.044-.09.099-.176.129-.272.02-.079.048-.153.06-.233.009-.058.01-.116.012-.174.005-.18.26-.173.254.008-.002.07-.004.139-.014.207-.015.093-.045.18-.07.271-.038.114-.097.219-.152.325-.063.105-.121.215-.196.313-.088.098-.176.197-.274.284a1.104 1.104 0 01-.405.24c-.136.057-.275.106-.411.164-.13.054-.27.093-.406.126-.119.017-.236.031-.355.008-.103-.017-.2-.051-.301-.077a1.53 1.53 0 01-.333-.149.872.872 0 01-.244-.234c-.06-.084-.114-.172-.18-.252-.064-.096-.127-.193-.2-.282a1.462 1.462 0 01-.154-.264 1.105 1.105 0 01-.118-.343c-.01-.108-.006-.216-.007-.324 0-.181.255-.181.255 0z"
          opacity="1"
          paintOrder="fill markers stroke"
        ></path>
        <path
          fill="#fff"
          fillRule="nonzero"
          stroke="none"
          strokeLinecap="square"
          strokeLinejoin="miter"
          d="M124.81 129.89c.046.076.09.154.142.226.07.088.13.18.205.263.063.085.14.156.224.22.068.063.136.127.224.16.085.044.177.072.265.109.096.041.2.067.301.091.107.016.212.035.318.056.104.02.21.023.314.025.124-.002.248.009.37-.004a1.63 1.63 0 00.303-.059c.093-.02.179-.062.265-.1.1-.055.19-.128.286-.19.073-.056.15-.11.216-.175.05-.053.118-.093.157-.155.104-.148.312 0 .208.147-.054.073-.122.132-.19.193-.08.074-.166.142-.255.206-.108.068-.205.152-.32.208-.098.043-.196.09-.3.113-.114.03-.227.057-.345.066-.133.012-.267.005-.4.005a2.15 2.15 0 01-.358-.03c-.11-.021-.219-.04-.328-.058a2.11 2.11 0 01-.342-.104c-.086-.038-.178-.063-.261-.107a.904.904 0 01-.285-.195 1.362 1.362 0 01-.258-.253c-.08-.09-.148-.19-.223-.285-.051-.075-.098-.153-.146-.23-.1-.15.112-.293.212-.142z"
          opacity="1"
          paintOrder="fill markers stroke"
        ></path>
        <path
          fill="#fff"
          fillRule="nonzero"
          stroke="none"
          strokeLinecap="square"
          strokeLinejoin="miter"
          d="M125.064 133.823c.03.058.075.113.132.147.064.054.14.088.212.126a.478.478 0 00.208.055c.09.002.183.014.273 0 .07-.03.143-.054.213-.086.058-.03.09-.08.136-.124.046-.042.075-.097.108-.148.024-.042.009-.019.046-.07.108-.143.311.01.203.155-.023.027-.01.01-.036.054-.047.07-.088.145-.153.202-.03.023-.05.056-.077.082-.036.035-.081.056-.123.083a2.27 2.27 0 01-.286.106 1.96 1.96 0 01-.328 0 .737.737 0 01-.305-.084c-.08-.044-.164-.08-.234-.14a.623.623 0 01-.2-.217c-.1-.15.111-.292.211-.141z"
          opacity="1"
          paintOrder="fill markers stroke"
        ></path>
        <path
          fill="#fff"
          fillRule="nonzero"
          stroke="none"
          strokeLinecap="square"
          strokeLinejoin="miter"
          d="M125.086 135.21c.057.06.13.092.202.128.08.034.17.037.255.041.103.004.207.003.31.003a.476.476 0 00.189-.072c.074-.031.147-.061.21-.112.045-.06.11-.1.163-.152.027-.058.062-.113.096-.167.097-.152.312-.015.215.137-.046.072-.083.15-.137.216-.06.057-.128.106-.183.17a.961.961 0 01-.24.132.71.71 0 01-.312.104c-.109 0-.217 0-.325-.003a.942.942 0 01-.358-.07c-.079-.04-.164-.077-.227-.141-.15-.1-.009-.313.142-.213z"
          opacity="1"
          paintOrder="fill markers stroke"
        ></path>
        <path
          fill="#fff"
          fillRule="nonzero"
          stroke="none"
          strokeLinecap="square"
          strokeLinejoin="miter"
          d="M125.137 136.692c.089.04.174.089.264.127a.792.792 0 00.256.042c.1.003.199.002.298.002.085.007.158-.036.237-.062.061-.022.11-.061.16-.1.07-.04.129-.093.198-.134.067-.019.107-.064.156-.11l.015-.018c.12-.134.31.036.19.17l-.033.037c-.062.055-.12.119-.203.143-.06.03-.106.084-.167.114a.829.829 0 01-.238.141c-.104.033-.202.086-.314.075-.104 0-.208.002-.312-.002a1.023 1.023 0 01-.345-.063c-.103-.046-.203-.098-.304-.15-.15-.1-.009-.312.142-.212z"
          opacity="1"
          paintOrder="fill markers stroke"
        ></path>
        <path
          fill="#fff"
          fillRule="nonzero"
          stroke="none"
          strokeLinecap="square"
          strokeLinejoin="miter"
          d="M125.562 138.2c.09.022.175.057.266.075.093.015.188.016.282.017h.304c.056-.012.121-.014.168-.052.06-.039.109-.092.168-.133.057-.038.107-.083.16-.127.054-.033.104-.072.154-.11.146-.107.296.099.151.206-.047.034-.092.072-.143.1-.06.05-.117.102-.182.144-.064.037-.106.106-.174.137a.69.69 0 01-.302.09h-.308c-.11-.001-.22-.003-.327-.022-.096-.019-.186-.052-.28-.077-.174-.044-.112-.292.063-.248z"
          opacity="1"
          paintOrder="fill markers stroke"
        ></path>
        <path
          fill="#fff"
          fillRule="nonzero"
          stroke="none"
          strokeLinecap="square"
          strokeLinejoin="miter"
          d="M126.275 139.783c.094.021.19.03.286.036.104.005.208.005.312.005.095.01.162-.04.24-.088.09-.045.17-.11.244-.176.06-.053.124-.105.178-.165.039-.035.027-.018.043-.047.109-.144.312.01.204.154-.047.058-.025.036-.062.069a2.458 2.458 0 01-.194.18 1.366 1.366 0 01-.281.204c-.116.07-.232.136-.373.124-.109 0-.218 0-.326-.006a1.988 1.988 0 01-.333-.043c-.175-.044-.113-.291.062-.248z"
          opacity="1"
          paintOrder="fill markers stroke"
        ></path>
        <path
          fill="#fff"
          fillRule="nonzero"
          stroke="none"
          strokeLinecap="square"
          strokeLinejoin="miter"
          d="M127.06 141.152c.097.002.193.002.29-.013.076-.03.147-.071.218-.112.054-.048.123-.073.177-.12.07-.047.14-.094.213-.135a.873.873 0 00.135-.139c.027-.041.055-.08.069-.127.058-.17.3-.089.241.082a.81.81 0 01-.114.208.97.97 0 01-.206.198c-.062.034-.12.075-.18.113-.067.051-.141.09-.209.142-.097.056-.197.114-.306.142a1.86 1.86 0 01-.329.016c-.18 0-.18-.255 0-.255z"
          opacity="1"
          paintOrder="fill markers stroke"
        ></path>
        <path
          fill="#fff"
          fillRule="nonzero"
          stroke="none"
          strokeLinecap="square"
          strokeLinejoin="miter"
          d="M128.027 142.428c.09.007.176-.005.264-.02a.749.749 0 00.21-.07.496.496 0 00.128-.128c.042-.078.095-.15.147-.221.037-.072.1-.126.139-.197a1.75 1.75 0 00.063-.223c.01-.061.013-.122.016-.184.008-.18.263-.168.255.012-.004.074-.008.149-.021.222-.021.104-.05.207-.094.304-.047.076-.107.14-.152.216-.052.07-.103.141-.145.218a.719.719 0 01-.23.214c-.086.04-.176.073-.27.087a1.264 1.264 0 01-.31.026c-.18 0-.18-.256 0-.256z"
          opacity="1"
          paintOrder="fill markers stroke"
        ></path>
        <path
          fill="#fff"
          fillRule="nonzero"
          stroke="none"
          strokeLinecap="square"
          strokeLinejoin="miter"
          d="M129.377 143.357c.075-.046.15-.09.226-.135.055-.048.125-.073.18-.12.053-.037.093-.092.131-.144.03-.063.064-.125.082-.193.018-.085.018-.173.02-.26v-.232c0-.18.254-.18.255 0v.237c-.003.109-.005.218-.03.324a1.21 1.21 0 01-.124.28c-.053.067-.107.139-.177.19-.068.05-.142.089-.21.14-.071.04-.142.082-.212.125-.15.1-.29-.112-.141-.212z"
          opacity="1"
          paintOrder="fill markers stroke"
        ></path>
        <path
          fill="#fefefe"
          fillRule="nonzero"
          stroke="none"
          strokeLinecap="square"
          strokeLinejoin="miter"
          d="M123.048 133.985c.075.05.16.077.244.108.098.032.199.06.3.085.09.021.185.025.279.028.095-.002.192.01.286-.004.086-.005.161-.04.238-.074.09-.044.166-.109.254-.154.162-.078.273.151.11.23-.092.038-.163.122-.26.156a.946.946 0 01-.311.096c-.108.011-.217.007-.325.005a1.699 1.699 0 01-.334-.036 4.704 4.704 0 01-.326-.093c-.102-.038-.204-.074-.296-.135-.15-.1-.01-.313.14-.212z"
          opacity="1"
          paintOrder="fill markers stroke"
        ></path>
        <path
          fill="#fefefe"
          fillRule="nonzero"
          stroke="none"
          strokeLinecap="square"
          strokeLinejoin="miter"
          d="M123.22 135.59c.072.048.14.1.21.15.068.036.143.056.217.074.09.02.182.024.274.026.088.002.176.007.263-.01.067-.037.141-.06.213-.086.046-.029.114-.048.143-.099.025-.029.047-.06.072-.09.116-.137.31.028.194.166-.024.027-.043.057-.067.084a.673.673 0 01-.256.18 6.64 6.64 0 00-.25.095 1.4 1.4 0 01-.32.016 1.58 1.58 0 01-.33-.035 1.039 1.039 0 01-.303-.115c-.08-.058-.162-.115-.24-.175-.127-.128.053-.308.18-.18z"
          opacity="1"
          paintOrder="fill markers stroke"
        ></path>
        <path
          fill="#fefefe"
          fillRule="nonzero"
          stroke="none"
          strokeLinecap="square"
          strokeLinejoin="miter"
          d="M123.506 137.458c.07.031.136.07.21.094.083.021.17.023.256.025a.69.69 0 00.22-.036.552.552 0 00.177-.085.417.417 0 00.151-.113c.055-.057.113-.11.16-.174.11-.144.312.011.203.155a1.55 1.55 0 01-.165.18.626.626 0 01-.21.166.999.999 0 01-.543.162 1.3 1.3 0 01-.33-.038c-.094-.032-.182-.078-.27-.124-.15-.1-.009-.312.141-.212z"
          opacity="1"
          paintOrder="fill markers stroke"
        ></path>
        <path
          fill="#fefefe"
          fillRule="nonzero"
          stroke="none"
          strokeLinecap="square"
          strokeLinejoin="miter"
          d="M123.66 138.836c.072.03.144.062.219.088.08.025.165.028.248.031.1.002.2.002.3.002a.7.7 0 00.23-.06c.074-.036.145-.08.217-.121.028-.025.015-.011.04-.041.121-.133.31.039.188.172-.063.066-.03.036-.1.09-.079.045-.157.093-.239.132a.962.962 0 01-.336.083c-.103 0-.206.001-.31-.002a1.155 1.155 0 01-.324-.046 2.263 2.263 0 01-.275-.115c-.15-.1-.01-.313.141-.213z"
          opacity="1"
          paintOrder="fill markers stroke"
        ></path>
        <path
          fill="#fefefe"
          fillRule="nonzero"
          stroke="none"
          strokeLinecap="square"
          strokeLinejoin="miter"
          d="M124.033 140.702c.106.018.202.066.302.104.097.03.2.036.3.054.09.017.178.034.269.02.06-.025.115-.058.174-.085.062-.036.127-.066.188-.104.017-.012.1-.042.094-.073.098-.151.312-.013.215.138-.05.067-.1.12-.178.154-.07.042-.143.077-.214.118-.082.035-.156.087-.244.105a1.053 1.053 0 01-.35-.022c-.116-.021-.235-.026-.346-.067-.09-.035-.176-.079-.272-.094-.174-.044-.113-.292.062-.248z"
          opacity="1"
          paintOrder="fill markers stroke"
        ></path>
        <path
          fill="#fefefe"
          fillRule="nonzero"
          stroke="none"
          strokeLinecap="square"
          strokeLinejoin="miter"
          d="M124.817 142.581c.099-.003.198.007.296-.005.102-.012.195-.058.29-.092.08-.034.153-.077.226-.122.062-.057.138-.094.201-.148.061-.053.13-.104.175-.171.108-.145.312.008.204.152-.062.081-.138.152-.217.217-.074.059-.156.107-.23.167a1.9 1.9 0 01-.274.145c-.114.04-.225.095-.347.106-.108.01-.216.006-.324.007-.18 0-.18-.255 0-.255z"
          opacity="1"
          paintOrder="fill markers stroke"
        ></path>
        <path
          fill="#fefefe"
          fillRule="nonzero"
          stroke="none"
          strokeLinecap="square"
          strokeLinejoin="miter"
          d="M125.664 144.072c.1.024.202.03.305.021a.6.6 0 00.242-.1c.077-.056.154-.112.221-.181a.799.799 0 00.093-.195c.014-.084.063-.154.097-.23.014-.042.005-.018.03-.072.076-.164.307-.056.23.108-.019.038-.007.015-.029.072-.032.069-.075.131-.088.207a.91.91 0 01-.151.29c-.08.08-.17.149-.263.215a.862.862 0 01-.362.141c-.13.01-.26.003-.387-.028-.175-.044-.113-.292.062-.248z"
          opacity="1"
          paintOrder="fill markers stroke"
        ></path>
        <path
          fill="#fefefe"
          fillRule="nonzero"
          stroke="none"
          strokeLinecap="square"
          strokeLinejoin="miter"
          d="M126.754 145.492h.309a.654.654 0 00.249-.074.697.697 0 00.147-.127c.048-.067.099-.133.155-.195.035-.046.072-.093.089-.15a.42.42 0 01.082-.215c.123-.132.31.042.187.174.03-.075-.039.12-.028.126a.785.785 0 01-.145.24c-.057.058-.1.128-.15.191a.922.922 0 01-.227.186.9.9 0 01-.359.1h-.31c-.18 0-.18-.256 0-.256z"
          opacity="1"
          paintOrder="fill markers stroke"
        ></path>
        <path
          fill="#fff"
          fillRule="nonzero"
          stroke="none"
          strokeLinecap="square"
          strokeLinejoin="miter"
          d="M121.876 134.751a.61.61 0 00.217.058c.09.003.184.022.273.006.061-.012.116-.046.17-.076a.577.577 0 00.164-.103l.022-.023c.126-.13.308.05.182.178a.82.82 0 01-.244.171.8.8 0 01-.261.107 1.656 1.656 0 01-.34-.006.819.819 0 01-.324-.1c-.15-.1-.01-.312.141-.212z"
          opacity="1"
          paintOrder="fill markers stroke"
        ></path>
        <path
          fill="#fff"
          fillRule="nonzero"
          stroke="none"
          strokeLinecap="square"
          strokeLinejoin="miter"
          d="M121.817 136.02c.094.037.188.075.285.1.084.015.172.038.255.01.094-.016.16-.076.235-.129.029-.033.082-.047.1-.088.11-.144.312.01.203.155a.836.836 0 01-.158.144c-.1.068-.194.143-.317.166a.814.814 0 01-.382-.011 2.63 2.63 0 01-.334-.119c-.162-.08-.048-.309.113-.228z"
          opacity="1"
          paintOrder="fill markers stroke"
        ></path>
        <path
          fill="#fff"
          fillRule="nonzero"
          stroke="none"
          strokeLinecap="square"
          strokeLinejoin="miter"
          d="M121.876 137.356c.08.033.158.069.241.092a.43.43 0 00.24.002.735.735 0 00.234-.111c.059-.049.124-.09.181-.14.02-.024.035-.052.053-.078.103-.148.312-.002.21.146-.031.044-.057.091-.098.127-.063.054-.133.099-.197.152-.097.068-.204.12-.319.151a.712.712 0 01-.374-.003 1.81 1.81 0 01-.312-.125c-.15-.1-.01-.313.141-.213z"
          opacity="1"
          paintOrder="fill markers stroke"
        ></path>
        <path
          fill="#fff"
          fillRule="nonzero"
          stroke="none"
          strokeLinecap="square"
          strokeLinejoin="miter"
          d="M121.944 138.813a.957.957 0 00.258.079c.087.005.18.023.267.009.068-.01.12-.06.172-.101.075-.072.149-.144.23-.208l.024-.021c.134-.121.305.068.17.19l-.038.034c-.081.062-.151.135-.226.204-.09.071-.184.141-.3.155a1.49 1.49 0 01-.34-.01.89.89 0 01-.278-.083c-.175-.044-.113-.292.061-.248z"
          opacity="1"
          paintOrder="fill markers stroke"
        ></path>
        <path
          fill="#fff"
          fillRule="nonzero"
          stroke="none"
          strokeLinecap="square"
          strokeLinejoin="miter"
          d="M122.015 140.232c.098.018.194.035.293.043.11.008.222.008.333.009a.484.484 0 00.225-.096c.059-.055.122-.105.185-.155.028-.024.05-.052.075-.078.124-.13.308.045.184.176-.033.035-.063.073-.102.103-.07.053-.135.11-.202.167a.72.72 0 01-.367.138c-.117 0-.235-.002-.352-.01-.09-.008-.184-.016-.272-.041-.18 0-.18-.256 0-.256z"
          opacity="1"
          paintOrder="fill markers stroke"
        ></path>
        <path
          fill="#fff"
          fillRule="nonzero"
          stroke="none"
          strokeLinecap="square"
          strokeLinejoin="miter"
          d="M122.148 142.183c.1.026.198.057.3.074a.772.772 0 00.26.005c.07-.013.143-.026.205-.06a.809.809 0 00.18-.098c.055-.036.125-.06.162-.115.033-.04.066-.08.098-.123.108-.144.311.01.203.154a4.512 4.512 0 01-.103.13.695.695 0 01-.216.165 1.06 1.06 0 01-.216.119 1.022 1.022 0 01-.616.075c-.108-.02-.213-.05-.319-.079-.174-.043-.113-.291.062-.247z"
          opacity="1"
          paintOrder="fill markers stroke"
        ></path>
        <path
          fill="#fff"
          fillRule="nonzero"
          stroke="none"
          strokeLinecap="square"
          strokeLinejoin="miter"
          d="M122.691 143.79c.076.037.153.07.234.092.092.022.187.025.282.027a.592.592 0 00.234-.03c.082-.026.149-.084.221-.13.073-.039.12-.104.18-.157.038-.025.076-.05.115-.073.156-.09.284.13.128.22-.026.016-.05.035-.078.047-.073.057-.125.14-.212.181-.09.055-.173.127-.277.155a.853.853 0 01-.318.042 1.558 1.558 0 01-.343-.036 1.467 1.467 0 01-.307-.126c-.15-.1-.01-.313.141-.213z"
          opacity="1"
          paintOrder="fill markers stroke"
        ></path>
        <path
          fill="#fff"
          fillRule="nonzero"
          stroke="none"
          strokeLinecap="square"
          strokeLinejoin="miter"
          d="M123.167 145.552c.11.012.213.047.32.07.075.006.164.04.236.008.067-.032.144-.042.205-.087.053-.031.091-.084.128-.133.065-.062.124-.132.193-.19a.35.35 0 00.12-.143.468.468 0 00.07-.13c.063-.169.302-.08.24.09a.609.609 0 01-.088.164.633.633 0 01-.183.219c-.057.039-.095.103-.15.145-.056.072-.114.148-.194.194-.084.051-.176.082-.268.116a.794.794 0 01-.363-.002c-.105-.023-.208-.058-.316-.07-.176-.035-.126-.286.05-.25z"
          opacity="1"
          paintOrder="fill markers stroke"
        ></path>
        <path
          fill="#fff"
          fillRule="nonzero"
          stroke="none"
          strokeLinecap="square"
          strokeLinejoin="miter"
          d="M123.804 147.203a.903.903 0 00.269.066c.087.015.17.007.256-.01.064-.03.133-.048.195-.084.079-.049.164-.089.241-.14.074-.039.142-.07.194-.136a.537.537 0 00.1-.192c.044-.175.291-.111.246.064a.826.826 0 01-.15.292.734.734 0 01-.252.187c-.084.053-.172.098-.256.148-.086.046-.178.08-.27.111a.954.954 0 01-.336.013 1.143 1.143 0 01-.35-.091c-.162-.081-.048-.31.113-.229z"
          opacity="1"
          paintOrder="fill markers stroke"
        ></path>
        <path
          fill="#fff"
          fillRule="nonzero"
          stroke="none"
          strokeLinecap="square"
          strokeLinejoin="miter"
          d="M124.492 148.515c.094.021.19.03.286.035.095-.002.194.017.288.001.075-.012.137-.06.2-.101.063-.038.13-.075.184-.128.043-.048.088-.098.11-.16.024-.064.067-.119.095-.18.079-.163.308-.051.229.111-.028.056-.063.107-.087.165a.796.796 0 01-.175.253c-.066.058-.138.11-.216.151-.095.063-.191.127-.307.142-.112.013-.224.005-.337.001a1.988 1.988 0 01-.332-.043c-.175-.043-.113-.291.062-.247z"
          opacity="1"
          paintOrder="fill markers stroke"
        ></path>
        <path
          fill="#fff"
          fillRule="nonzero"
          stroke="none"
          strokeLinecap="square"
          strokeLinejoin="miter"
          d="M120.326 135.201c.03.066.081.11.144.142.077.031.16.035.242.038.092-.004.187.013.278-.004a.465.465 0 00.168-.084c.066-.05.134-.097.199-.148.023-.03.009-.012.045-.05.127-.127.308.052.18.18-.04.042-.017.018-.07.071-.068.053-.139.104-.208.156a.712.712 0 01-.279.128c-.107.013-.216.008-.324.006a.876.876 0 01-.352-.07.535.535 0 01-.235-.223c-.1-.15.112-.292.212-.142z"
          opacity="1"
          paintOrder="fill markers stroke"
        ></path>
        <path
          fill="#fff"
          fillRule="nonzero"
          stroke="none"
          strokeLinecap="square"
          strokeLinejoin="miter"
          d="M120.367 136.612c.073.053.142.113.221.157a.887.887 0 00.245.08.355.355 0 00.23-.019c.085-.046.158-.108.233-.168l.109-.105c.133-.122.304.066.171.188-.04.037-.078.078-.12.115-.091.074-.182.15-.289.204a.628.628 0 01-.378.037 1.159 1.159 0 01-.329-.11 2.26 2.26 0 01-.273-.199c-.127-.128.053-.308.18-.18z"
          opacity="1"
          paintOrder="fill markers stroke"
        ></path>
        <path
          fill="#fff"
          fillRule="nonzero"
          stroke="none"
          strokeLinecap="square"
          strokeLinejoin="miter"
          d="M120.467 138.2c.097.028.193.057.294.074.103.018.206.018.31.005.083-.019.158-.057.236-.09.054-.03.11-.062.154-.107.13-.124.306.061.175.185a.952.952 0 01-.233.159c-.099.04-.194.088-.3.106a1.32 1.32 0 01-.385-.006c-.107-.018-.21-.048-.313-.078-.175-.044-.113-.291.062-.248z"
          opacity="1"
          paintOrder="fill markers stroke"
        ></path>
        <path
          fill="#fff"
          fillRule="nonzero"
          stroke="none"
          strokeLinecap="square"
          strokeLinejoin="miter"
          d="M120.479 139.746a.57.57 0 00.394.175c.091.008.182.008.272-.007a.566.566 0 00.171-.111c.05-.04.093-.087.14-.13.132-.123.304.065.172.187-.048.043-.09.093-.142.133a.745.745 0 01-.299.173 1.31 1.31 0 01-.339.01.82.82 0 01-.581-.289c-.1-.15.112-.292.212-.141z"
          opacity="1"
          paintOrder="fill markers stroke"
        ></path>
        <path
          fill="#fff"
          fillRule="nonzero"
          stroke="none"
          strokeLinecap="square"
          strokeLinejoin="miter"
          d="M120.428 141.482a.525.525 0 00.173.142.814.814 0 00.262.039c.096-.002.193.01.288-.005a.51.51 0 00.221-.086.857.857 0 00.152-.133c.026-.032.058-.06.086-.09.123-.132.31.042.186.174-.028.03-.059.058-.085.09-.06.063-.124.123-.197.17a.802.802 0 01-.332.128c-.109.012-.219.008-.328.006a.997.997 0 01-.365-.065.81.81 0 01-.273-.23c-.1-.15.112-.29.212-.14z"
          opacity="1"
          paintOrder="fill markers stroke"
        ></path>
        <path
          fill="#fff"
          fillRule="nonzero"
          stroke="none"
          strokeLinecap="square"
          strokeLinejoin="miter"
          d="M120.58 142.963c.05.047.106.082.162.12.06.044.13.05.2.055.103.002.206.015.308 0 .043-.01.165-.014.188-.06.052-.051.109-.098.162-.148.132-.123.305.063.174.186-.056.052-.113.1-.166.154a.602.602 0 01-.329.122c-.12.013-.24.006-.359 0a.627.627 0 01-.323-.099c-.081-.057-.167-.11-.228-.188-.1-.15.112-.292.212-.142z"
          opacity="1"
          paintOrder="fill markers stroke"
        ></path>
        <path
          fill="#fff"
          fillRule="nonzero"
          stroke="none"
          strokeLinecap="square"
          strokeLinejoin="miter"
          d="M120.722 144.48a.962.962 0 00.257.08c.096.012.193.013.29.013a.429.429 0 00.226-.053c.046-.045.087-.097.126-.15.048-.06.105-.113.156-.172.12-.134.31.036.19.17-.048.053-.097.102-.142.156-.064.083-.128.17-.217.225a.692.692 0 01-.341.08c-.11 0-.22-.002-.33-.017a.89.89 0 01-.277-.084c-.175-.043-.113-.291.062-.247z"
          opacity="1"
          paintOrder="fill markers stroke"
        ></path>
        <path
          fill="#fff"
          fillRule="nonzero"
          stroke="none"
          strokeLinecap="square"
          strokeLinejoin="miter"
          d="M121.01 145.985a.61.61 0 00.217.058c.098.01.197.01.296.011.074 0 .155.002.225-.029.047-.04.101-.072.146-.116.03-.06.1-.089.131-.144.109-.145.312.009.204.153-.05.062-.111.11-.157.174-.07.068-.152.122-.236.173a.817.817 0 01-.314.045c-.11 0-.22 0-.33-.013a.817.817 0 01-.323-.1c-.15-.1-.01-.312.14-.212z"
          opacity="1"
          paintOrder="fill markers stroke"
        ></path>
        <path
          fill="#fff"
          fillRule="nonzero"
          stroke="none"
          strokeLinecap="square"
          strokeLinejoin="miter"
          d="M121.257 147.254a.903.903 0 00.268.066c.093.003.19.022.281.006a.366.366 0 00.17-.067c.048-.049.113-.075.163-.12.024-.034.051-.066.078-.098.12-.135.31.034.191.17-.037.04-.067.087-.107.125-.061.049-.13.088-.19.14a.638.638 0 01-.273.103c-.114.013-.23.004-.344-.006a1.143 1.143 0 01-.35-.09c-.162-.082-.048-.31.113-.23z"
          opacity="1"
          paintOrder="fill markers stroke"
        ></path>
        <path
          fill="#fff"
          fillRule="nonzero"
          stroke="none"
          strokeLinecap="square"
          strokeLinejoin="miter"
          d="M121.52 148.743c.075.04.161.048.245.057.105.01.212.011.318.012a.247.247 0 00.147-.064c.059-.044.093-.11.137-.167.028-.039.012-.017.052-.063.12-.134.31.038.189.171-.027.028-.012.01-.043.053-.057.068-.096.151-.172.202a.528.528 0 01-.312.123 3.82 3.82 0 01-.346-.013.854.854 0 01-.357-.099c-.15-.1-.009-.313.141-.212z"
          opacity="1"
          paintOrder="fill markers stroke"
        ></path>
        <path
          fill="#fff"
          fillRule="nonzero"
          stroke="none"
          strokeLinecap="square"
          strokeLinejoin="miter"
          d="M116.873 146.992a.707.707 0 00.097.185c.057.05.09.118.14.173.045.039.097.068.148.097.06.031.116.06.182.074.087.013.175.013.263.014a.534.534 0 00.245-.037c.084-.032.17-.064.248-.11.037-.018.068-.044.101-.068.148-.103.294.106.146.21-.04.027-.077.057-.12.079-.09.05-.187.092-.285.128a.787.787 0 01-.338.053 1.93 1.93 0 01-.314-.02.974.974 0 01-.254-.101.978.978 0 01-.215-.153c-.052-.062-.093-.13-.151-.186a.987.987 0 01-.14-.276c-.044-.175.203-.237.247-.062z"
          opacity="1"
          paintOrder="fill markers stroke"
        ></path>
        <path
          fill="#fff"
          fillRule="nonzero"
          stroke="none"
          strokeLinecap="square"
          strokeLinejoin="miter"
          d="M117.28 145.868a.472.472 0 00.124.178c.06.043.106.105.175.135.07.026.136.053.21.065.09.012.18.012.27.013a.593.593 0 00.212-.066c.062-.029.123-.054.174-.101.067-.062.133-.126.2-.186.024-.027.051-.049.075-.075.123-.132.309.043.186.175l-.091.09c-.07.06-.133.126-.201.187a.854.854 0 01-.23.138.847.847 0 01-.327.093c-.104 0-.209-.002-.312-.016a1.369 1.369 0 01-.278-.088c-.093-.048-.167-.118-.246-.186a.717.717 0 01-.188-.294c-.043-.175.204-.237.247-.061z"
          opacity="1"
          paintOrder="fill markers stroke"
        ></path>
        <path
          fill="#fff"
          fillRule="nonzero"
          stroke="none"
          strokeLinecap="square"
          strokeLinejoin="miter"
          d="M117.739 144.54c.033.052.071.102.115.145a.416.416 0 00.183.078c.091.014.184.014.277.015.089 0 .178.005.265-.013.061-.032.127-.053.19-.081.05-.04.114-.06.163-.102.015-.026.04-.048.061-.07.125-.13.309.046.184.176l-.09.096c-.068.051-.142.09-.214.133-.08.036-.162.067-.243.099-.106.02-.211.02-.318.018-.11-.001-.22-.002-.328-.02a.662.662 0 01-.313-.151.771.771 0 01-.18-.26c-.043-.175.204-.237.248-.062z"
          opacity="1"
          paintOrder="fill markers stroke"
        ></path>
        <path
          fill="#fff"
          fillRule="nonzero"
          stroke="none"
          strokeLinecap="square"
          strokeLinejoin="miter"
          d="M118.135 142.81a.733.733 0 00.15.137c.063.027.13.05.197.07.08.019.162.021.244.023a.809.809 0 00.252-.02c.07-.026.147-.037.21-.08.043-.04.128-.05.157-.103.022-.041.108-.104.12-.136.108-.144.311.01.203.154-.042.05-.09.096-.13.148a.788.788 0 01-.218.154 1.09 1.09 0 01-.602.138 1.296 1.296 0 01-.31-.034c-.093-.029-.19-.057-.275-.108a.998.998 0 01-.21-.202c-.1-.15.112-.291.212-.141z"
          opacity="1"
          paintOrder="fill markers stroke"
        ></path>
        <path
          fill="#fff"
          fillRule="nonzero"
          stroke="none"
          strokeLinecap="square"
          strokeLinejoin="miter"
          d="M118.492 141.329c.045.04.089.08.146.102.072.03.132.083.206.108.077.019.158.02.237.021.088.001.176.006.262-.012a.284.284 0 00.15-.072c.041-.058.098-.107.148-.159.046-.043.094-.084.139-.129.128-.127.307.055.179.182a3.928 3.928 0 01-.133.123c-.057.06-.117.114-.169.178a.563.563 0 01-.264.128 1.42 1.42 0 01-.318.017 1.132 1.132 0 01-.318-.037c-.078-.03-.147-.076-.222-.114a.727.727 0 01-.255-.194c-.1-.15.112-.292.212-.142z"
          opacity="1"
          paintOrder="fill markers stroke"
        ></path>
        <path
          fill="#fff"
          fillRule="nonzero"
          stroke="none"
          strokeLinecap="square"
          strokeLinejoin="miter"
          d="M118.543 139.593c.052.045.105.09.163.126.073.03.144.066.22.086.08.012.161-.008.24-.017.092.005.166-.026.249-.06a.524.524 0 00.148-.11.584.584 0 01.212-.18c.056-.038.104-.084.154-.128l.016-.018c.125-.13.309.047.184.177l-.034.035c-.062.052-.12.109-.19.152a.406.406 0 00-.159.14.79.79 0 01-.237.17.79.79 0 01-.315.076c-.11.012-.223.037-.333.01a1.631 1.631 0 01-.293-.118 1.12 1.12 0 01-.237-.2c-.1-.15.112-.291.212-.14z"
          opacity="1"
          paintOrder="fill markers stroke"
        ></path>
        <path
          fill="#fff"
          fillRule="nonzero"
          stroke="none"
          strokeLinecap="square"
          strokeLinejoin="miter"
          d="M118.633 138.2c.11.021.212.067.318.102.092.029.189.036.285.04.087.002.175.008.26-.01.063-.042.14-.05.208-.077a.469.469 0 00.18-.093c.034-.022.062-.05.092-.075.139-.115.301.082.163.197-.033.026-.063.056-.098.08a.734.734 0 01-.252.132c-.081.027-.164.049-.242.086-.107.021-.214.02-.323.015a1.336 1.336 0 01-.353-.053c-.1-.033-.197-.076-.3-.096-.175-.044-.113-.292.062-.248z"
          opacity="1"
          paintOrder="fill markers stroke"
        ></path>
        <path
          fill="#fff"
          fillRule="nonzero"
          stroke="none"
          strokeLinecap="square"
          strokeLinejoin="miter"
          d="M118.615 136.59c.074.035.133.094.204.134a.76.76 0 00.197.075c.088.012.177.012.266.013a.374.374 0 00.206-.034c.07-.03.142-.058.202-.106.045-.035.094-.063.14-.098.143-.11.296.094.153.203-.047.035-.095.066-.141.1-.077.055-.16.098-.247.133a.625.625 0 01-.315.057 2.13 2.13 0 01-.315-.018 1.061 1.061 0 01-.274-.104c-.075-.045-.14-.102-.217-.143-.15-.1-.009-.312.141-.212z"
          opacity="1"
          paintOrder="fill markers stroke"
        ></path>
        <path
          fill="#fff"
          fillRule="nonzero"
          stroke="none"
          strokeLinecap="square"
          strokeLinejoin="miter"
          d="M118.582 135.238c.096.039.195.064.297.079.1.012.2.013.301.014a1.1 1.1 0 00.284-.022c.074-.027.151-.045.22-.084.05-.043.1-.085.149-.129.135-.119.303.074.167.192-.064.056-.127.115-.198.163a1.606 1.606 0 01-.295.11c-.11.019-.218.033-.33.025-.111 0-.224-.002-.335-.017a1.343 1.343 0 01-.322-.083c-.175-.044-.113-.292.062-.248z"
          opacity="1"
          paintOrder="fill markers stroke"
        ></path>
        <path
          fill="#fff"
          fillRule="nonzero"
          stroke="none"
          strokeLinecap="square"
          strokeLinejoin="miter"
          d="M118.82 133.934a.36.36 0 00.188.103c.09.016.182.017.274.018a.373.373 0 00.203-.06c.07-.038.145-.067.212-.108l.006-.01c.136-.118.303.074.168.193l-.048.04c-.073.039-.147.074-.22.111a.641.641 0 01-.324.09c-.112-.003-.224-.003-.333-.026a.534.534 0 01-.269-.138c-.15-.1-.009-.313.142-.213z"
          opacity="1"
          paintOrder="fill markers stroke"
        ></path>
        <path
          fill="#fff"
          fillRule="nonzero"
          stroke="none"
          strokeLinecap="square"
          strokeLinejoin="miter"
          d="M117.106 133.701c.058.053.113.1.187.125.08.044.165.059.255.067a.784.784 0 00.298-.038c.083-.04.171-.066.256-.1.073-.034.151-.057.224-.09.167-.069.265.167.098.236-.075.03-.152.057-.226.09-.092.038-.187.067-.277.108-.129.04-.263.06-.397.048a.845.845 0 01-.318-.081.81.81 0 01-.28-.185c-.127-.127.053-.308.18-.18z"
          opacity="1"
          paintOrder="fill markers stroke"
        ></path>
        <path
          fill="#fff"
          fillRule="nonzero"
          stroke="none"
          strokeLinecap="square"
          strokeLinejoin="miter"
          d="M116.985 134.802c.07.045.142.086.217.121a.75.75 0 00.253.048c.099.005.198.003.298.003.079.004.155-.022.229-.046.046-.03.137-.067.17-.108.136-.118.303.075.166.193a1.13 1.13 0 01-.256.157.893.893 0 01-.309.059c-.105 0-.21 0-.315-.004a.988.988 0 01-.344-.071 2.38 2.38 0 01-.25-.14c-.15-.1-.01-.312.141-.212z"
          opacity="1"
          paintOrder="fill markers stroke"
        ></path>
        <path
          fill="#fff"
          fillRule="nonzero"
          stroke="none"
          strokeLinecap="square"
          strokeLinejoin="miter"
          d="M116.883 135.977c.063.063.142.1.225.13.094.03.193.036.29.04.09.002.177.008.265-.01a.45.45 0 00.189-.066c.088-.063.195-.093.294-.134l.08-.048c.155-.09.284.13.128.22-.068.04-.031.02-.11.063-.09.038-.186.064-.266.121a.705.705 0 01-.265.093c-.108.022-.215.02-.325.016a1.304 1.304 0 01-.367-.056.732.732 0 01-.28-.157c-.15-.1-.008-.312.142-.212z"
          opacity="1"
          paintOrder="fill markers stroke"
        ></path>
        <path
          fill="#fff"
          fillRule="nonzero"
          stroke="none"
          strokeLinecap="square"
          strokeLinejoin="miter"
          d="M116.76 137.346a.465.465 0 00.132.167c.066.071.14.122.234.148.089.019.18.019.271.02.09-.005.183.013.27-.017.094-.034.192-.062.283-.104a.133.133 0 00.06-.054c.113-.14.311.02.198.16a.432.432 0 01-.155.128c-.103.044-.21.08-.316.115a1.19 1.19 0 01-.342.027c-.114 0-.23-.002-.341-.03a.713.713 0 01-.321-.193.666.666 0 01-.185-.225c-.1-.15.112-.292.211-.142z"
          opacity="1"
          paintOrder="fill markers stroke"
        ></path>
        <path
          fill="#fff"
          fillRule="nonzero"
          stroke="none"
          strokeLinecap="square"
          strokeLinejoin="miter"
          d="M116.454 138.725c.043.089.097.17.156.25.055.066.128.12.207.156.073.026.151.027.228.03a.49.49 0 00.238-.029.477.477 0 00.169-.102l.006-.012c.109-.144.312.01.203.154l-.039.047a.763.763 0 01-.585.197.901.901 0 01-.332-.056.869.869 0 01-.302-.235 1.6 1.6 0 01-.162-.259c-.1-.15.112-.291.212-.141z"
          opacity="1"
          paintOrder="fill markers stroke"
        ></path>
        <path
          fill="#fff"
          fillRule="nonzero"
          stroke="none"
          strokeLinecap="square"
          strokeLinejoin="miter"
          d="M115.954 140.282c.01.063.046.107.085.153a.27.27 0 00.137.09c.078.032.16.05.239.08.067.025.134.029.205.02.08-.022.156-.06.231-.097l.023-.017c.15-.1.292.111.142.212l-.054.035c-.1.048-.201.1-.312.12a.68.68 0 01-.322-.034c-.074-.027-.15-.043-.222-.074a.556.556 0 01-.26-.169.542.542 0 01-.147-.319c0-.18.255-.18.255 0z"
          opacity="1"
          paintOrder="fill markers stroke"
        ></path>
        <path
          fill="#fff"
          fillRule="nonzero"
          stroke="none"
          strokeLinecap="square"
          strokeLinejoin="miter"
          d="M115.444 141.559c-.006.076.03.139.066.202.023.066.061.09.118.123.062.027.131.029.198.032.098.003.197.002.296.002a.377.377 0 00.21-.06c.158-.084.278.14.12.226a.644.644 0 01-.33.09c-.103 0-.206.002-.31-.002a.726.726 0 01-.316-.069c-.088-.054-.17-.116-.208-.216a.604.604 0 01-.099-.328c0-.18.255-.18.255 0z"
          opacity="1"
          paintOrder="fill markers stroke"
        ></path>
        <path
          fill="#fff"
          fillRule="nonzero"
          stroke="none"
          strokeLinecap="square"
          strokeLinejoin="miter"
          d="M114.782 142.887c-.005.065.025.115.068.163.05.048.104.097.17.122.078.021.16.021.24.023a.72.72 0 00.258-.032c.065-.023.132-.04.192-.075.16-.084.278.142.118.226a1.53 1.53 0 01-.235.093c-.11.033-.224.05-.34.043a1.043 1.043 0 01-.329-.042.796.796 0 01-.271-.197c-.075-.094-.134-.2-.126-.324 0-.181.255-.181.255 0z"
          opacity="1"
          paintOrder="fill markers stroke"
        ></path>
        <path
          fill="#fff"
          fillRule="nonzero"
          stroke="none"
          strokeLinecap="square"
          strokeLinejoin="miter"
          d="M114.12 144.112c-.001.06.01.135.058.177.042.054.1.091.156.13.052.036.115.042.176.047a.499.499 0 00.247-.026l.028-.015c.162-.08.275.148.114.228l-.061.03a.767.767 0 01-.352.038.597.597 0 01-.299-.093c-.073-.052-.148-.102-.204-.175a.518.518 0 01-.118-.34c0-.181.254-.181.254 0z"
          opacity="1"
          paintOrder="fill markers stroke"
        ></path>
        <path
          fill="#fff"
          fillRule="nonzero"
          stroke="none"
          strokeLinecap="square"
          strokeLinejoin="miter"
          d="M113.928 130.717c.062.047.11.111.183.143.07.03.127.084.2.109.077.019.156.02.235.021.086.01.166-.013.25-.028.074-.012.154-.017.224-.05.074-.028.147-.051.217-.09a.709.709 0 00.198-.138c.067-.055.124-.118.18-.183.074-.072.144-.147.22-.215a.805.805 0 00.173-.144c.038-.053.064-.113.096-.17.049-.071.1-.138.144-.212.053-.072.108-.142.16-.213.046-.069.1-.13.147-.198.059-.061.09-.137.125-.212.022-.076.076-.137.11-.207.028-.046.058-.092.084-.14.088-.157.31-.032.223.125-.026.045-.052.09-.08.132-.037.067-.084.127-.107.2-.041.087-.08.177-.146.248-.049.07-.104.134-.151.204-.048.064-.094.129-.146.19-.043.073-.091.141-.142.209-.043.072-.073.153-.13.217a.82.82 0 01-.19.161c-.07.061-.131.13-.198.194-.062.07-.126.14-.199.2a.96.96 0 01-.246.174c-.08.045-.162.074-.247.105-.088.034-.18.055-.275.064-.1.018-.198.043-.3.033a1.121 1.121 0 01-.318-.038c-.08-.03-.148-.077-.222-.119a.833.833 0 01-.213-.16c-.15-.1-.01-.312.141-.212z"
          opacity="1"
          paintOrder="fill markers stroke"
        ></path>
        <path
          fill="#fff"
          fillRule="nonzero"
          stroke="none"
          strokeLinecap="square"
          strokeLinejoin="miter"
          d="M119.573 129.835a.495.495 0 00.086.201c.05.066.09.14.144.201.053.051.112.09.173.132.056.04.123.048.19.055.09.013.177-.001.265-.016.08-.004.145-.045.215-.078a.997.997 0 01.237-.12.56.56 0 00.2-.12c.07-.064.135-.133.203-.2.055-.059.11-.119.168-.174.042-.052.06-.12.09-.18.027-.048.041-.101.062-.152.071-.166.306-.065.235.101-.025.055-.039.116-.07.168-.046.084-.068.183-.143.249-.058.053-.109.114-.164.17-.07.069-.136.14-.209.206a.85.85 0 01-.292.175c-.077.024-.142.07-.211.11-.09.04-.176.09-.278.097a1.105 1.105 0 01-.335.018.631.631 0 01-.307-.099 1.507 1.507 0 01-.223-.176c-.058-.07-.107-.146-.159-.22a.777.777 0 01-.124-.287c-.044-.175.203-.237.247-.061z"
          opacity="1"
          paintOrder="fill markers stroke"
        ></path>
        <path
          fill="#fff"
          fillRule="nonzero"
          stroke="none"
          strokeLinecap="square"
          strokeLinejoin="miter"
          d="M125.137 129.134c.079.059.14.136.213.201.064.068.14.124.215.178.054.055.12.082.188.114.067.027.14.03.212.033.106-.004.21.02.314.035.11.013.221.016.332.018.087.002.172-.023.258-.035.087-.008.17-.03.252-.06.1-.022.192-.068.287-.106.075-.03.133-.085.2-.128.052-.044.114-.076.17-.117.146-.105.294.103.148.208-.06.042-.124.078-.182.124-.081.05-.15.118-.242.15-.097.039-.191.086-.294.11a1.26 1.26 0 01-.303.072c-.1.013-.197.043-.298.037a3.284 3.284 0 01-.365-.02c-.096-.015-.192-.037-.29-.033a.837.837 0 01-.308-.058c-.08-.038-.163-.072-.227-.136a1.658 1.658 0 01-.239-.198c-.062-.057-.117-.122-.183-.176-.15-.1-.009-.313.142-.213z"
          opacity="1"
          paintOrder="fill markers stroke"
        ></path>
      </g>
    </svg>